<svg fill="#000" viewBox="0 0 512 512" version="1.1" xmlns="http://www.w3.org/2000/svg" xmlns:svg="http://www.w3.org/2000/svg">
  <path style="stroke-width:1.33127" d="M 256.63602,1.0335404 A 255.60248,255.60248 0 0 0 1.0335404,256.63602 255.60248,255.60248 0 0 0 256.63602,512.23851 255.60248,255.60248 0 0 0 512.23851,256.63602 255.60248,255.60248 0 0 0 256.63602,1.0335404 Z M 228.6691,101.10967 c 71.66597,0.72671 127.18241,58.99427 127.18241,127.36962 a 18.740854,18.740854 0 0 1 -18.74168,18.74168 18.740854,18.740854 0 0 1 -18.73908,-18.74168 c 0,-48.2699 -38.33916,-89.36677 -90.08127,-89.89144 a 18.740854,18.740854 0 0 1 -18.54927,-18.92891 18.740854,18.740854 0 0 1 18.92889,-18.54927 z m -0.18981,56.31087 a 18.740854,18.740854 0 0 1 18.74168,18.74168 18.740854,18.740854 0 0 1 -18.74168,18.73908 c -48.2699,0 -89.36677,38.33915 -89.89144,90.08127 a 18.740854,18.740854 0 0 1 -18.92891,18.54927 18.740854,18.740854 0 0 1 -18.54927,-18.9289 c 0.72671,-71.66596 58.99427,-127.1824 127.36962,-127.1824 z m 165.13382,52.31967 a 18.740854,18.740854 0 0 1 18.54927,18.92889 c -0.72671,71.66597 -58.99427,127.18241 -127.36962,127.18241 a 18.740854,18.740854 0 0 1 -18.74168,-18.74168 18.740854,18.740854 0 0 1 18.74168,-18.73908 c 48.2699,0 89.36677,-38.33916 89.89145,-90.08127 a 18.740854,18.740854 0 0 1 18.9289,-18.54927 z m -217.45089,56.31087 a 18.740854,18.740854 0 0 1 18.73908,18.74168 c 0,48.2699 38.37392,89.88886 89.89146,89.88886 a 18.740854,18.740854 0 0 1 18.73908,18.74167 18.740854,18.740854 0 0 1 -18.73908,18.74168 c -71.89055,1e-5 -127.37222,-58.99686 -127.37222,-127.37221 a 18.740854,18.740854 0 0 1 18.74168,-18.74168 z" />
</svg>
